<svg width="1200" height="630" viewBox="0 0 1200 630" fill="none" xmlns="http://www.w3.org/2000/svg">
<rect width="1200" height="630" fill="white"/>
<path d="M595.149 464.54C589.349 464.54 585.029 463.08 582.189 460.16C579.389 457.2 577.989 452.86 577.989 447.14V421.7H583.629V446.96C583.629 451.16 584.549 454.32 586.389 456.44C588.229 458.56 591.149 459.62 595.149 459.62C598.989 459.62 601.869 458.56 603.789 456.44C605.749 454.32 606.729 451.16 606.729 446.96V421.7H612.249V447.14C612.249 452.86 610.809 457.2 607.929 460.16C605.049 463.08 600.789 464.54 595.149 464.54ZM622.293 464V421.7H627.873V464H622.293ZM652.013 467.36H647.393L663.053 419.06H667.733L652.013 467.36ZM704.192 464.54C698.392 464.54 694.072 463.08 691.232 460.16C688.432 457.2 687.032 452.86 687.032 447.14V421.7H692.672V446.96C692.672 451.16 693.592 454.32 695.432 456.44C697.272 458.56 700.192 459.62 704.192 459.62C708.032 459.62 710.912 458.56 712.832 456.44C714.792 454.32 715.772 451.16 715.772 446.96V421.7H721.292V447.14C721.292 452.86 719.852 457.2 716.972 460.16C714.092 463.08 709.832 464.54 704.192 464.54ZM725.948 464L742.988 441.32V443.48L726.668 421.7H733.268L746.288 439.46H744.548L757.388 421.7H764.048L747.728 443.48V441.32L764.768 464H758.108L744.308 445.16H746.408L732.548 464H725.948ZM786.062 464V421.7H800.402C805.122 421.7 809.102 422.52 812.342 424.16C815.622 425.8 818.102 428.2 819.782 431.36C821.462 434.48 822.302 438.3 822.302 442.82C822.302 447.34 821.462 451.18 819.782 454.34C818.102 457.5 815.622 459.9 812.342 461.54C809.102 463.18 805.122 464 800.402 464H786.062ZM791.642 459.26H799.982C805.622 459.26 809.802 457.9 812.522 455.18C815.242 452.46 816.602 448.34 816.602 442.82C816.602 437.3 815.242 433.2 812.522 430.52C809.802 427.8 805.622 426.44 799.982 426.44H791.642V459.26ZM844.202 464.54C839.402 464.54 835.602 463.16 832.802 460.4C830.042 457.64 828.662 453.84 828.662 449C828.662 445.8 829.262 443.04 830.462 440.72C831.702 438.36 833.402 436.54 835.562 435.26C837.722 433.94 840.242 433.28 843.122 433.28C845.882 433.28 848.222 433.88 850.142 435.08C852.062 436.24 853.522 437.9 854.522 440.06C855.522 442.22 856.022 444.78 856.022 447.74V449.54H832.922V446.3H852.302L851.282 447.08C851.282 443.96 850.582 441.54 849.182 439.82C847.822 438.1 845.802 437.24 843.122 437.24C840.202 437.24 837.942 438.26 836.342 440.3C834.742 442.3 833.942 445.04 833.942 448.52V449.06C833.942 452.74 834.842 455.52 836.642 457.4C838.482 459.28 841.022 460.22 844.262 460.22C846.062 460.22 847.742 459.96 849.302 459.44C850.862 458.92 852.362 458.06 853.802 456.86L855.602 460.64C854.242 461.88 852.542 462.84 850.502 463.52C848.502 464.2 846.402 464.54 844.202 464.54ZM873.358 464.54C870.918 464.54 868.638 464.22 866.518 463.58C864.438 462.94 862.718 462.02 861.358 460.82L863.098 457.04C864.578 458.16 866.198 459.02 867.958 459.62C869.758 460.18 871.598 460.46 873.478 460.46C875.758 460.46 877.478 460.04 878.638 459.2C879.838 458.36 880.438 457.24 880.438 455.84C880.438 454.72 880.058 453.82 879.298 453.14C878.538 452.46 877.338 451.96 875.698 451.64L869.998 450.5C867.438 449.9 865.498 448.94 864.178 447.62C862.898 446.26 862.258 444.52 862.258 442.4C862.258 440.64 862.738 439.08 863.698 437.72C864.658 436.32 866.018 435.24 867.778 434.48C869.578 433.68 871.678 433.28 874.078 433.28C876.278 433.28 878.318 433.6 880.198 434.24C882.118 434.88 883.698 435.82 884.938 437.06L883.138 440.72C881.898 439.64 880.498 438.82 878.938 438.26C877.418 437.66 875.858 437.36 874.258 437.36C871.938 437.36 870.218 437.82 869.098 438.74C867.978 439.62 867.418 440.78 867.418 442.22C867.418 443.3 867.758 444.2 868.438 444.92C869.118 445.6 870.218 446.12 871.738 446.48L877.438 447.62C880.118 448.18 882.138 449.1 883.498 450.38C884.858 451.66 885.538 453.36 885.538 455.48C885.538 457.36 885.018 458.98 883.978 460.34C882.978 461.7 881.558 462.74 879.718 463.46C877.918 464.18 875.798 464.54 873.358 464.54ZM892.982 464V433.82H898.442V464H892.982ZM892.502 427.22V421.34H898.982V427.22H892.502ZM921.012 477.44C918.372 477.44 915.952 477.12 913.752 476.48C911.552 475.84 909.572 474.86 907.812 473.54L909.252 469.52C910.492 470.36 911.712 471.04 912.912 471.56C914.112 472.08 915.352 472.46 916.632 472.7C917.952 472.94 919.312 473.06 920.712 473.06C923.672 473.06 925.892 472.3 927.372 470.78C928.852 469.26 929.592 467.1 929.592 464.3V455.84H930.192C929.552 458.12 928.232 459.94 926.232 461.3C924.272 462.62 921.952 463.28 919.272 463.28C916.552 463.28 914.172 462.68 912.132 461.48C910.132 460.24 908.572 458.5 907.452 456.26C906.332 453.98 905.772 451.32 905.772 448.28C905.772 445.2 906.332 442.54 907.452 440.3C908.572 438.06 910.132 436.34 912.132 435.14C914.172 433.9 916.552 433.28 919.272 433.28C921.952 433.28 924.272 433.94 926.232 435.26C928.192 436.58 929.492 438.4 930.132 440.72L929.592 440.18L930.132 433.82H935.412C935.292 435.02 935.172 436.22 935.052 437.42C934.972 438.62 934.932 439.8 934.932 440.96V463.64C934.932 468.12 933.752 471.54 931.392 473.9C929.072 476.26 925.612 477.44 921.012 477.44ZM920.472 458.96C923.232 458.96 925.432 458.02 927.072 456.14C928.712 454.26 929.532 451.64 929.532 448.28C929.532 444.88 928.712 442.26 927.072 440.42C925.432 438.58 923.232 437.66 920.472 437.66C917.672 437.66 915.432 438.58 913.752 440.42C912.112 442.26 911.292 444.88 911.292 448.28C911.292 451.64 912.112 454.26 913.752 456.14C915.432 458.02 917.672 458.96 920.472 458.96ZM944.076 464V440.96C944.076 439.8 944.036 438.62 943.956 437.42C943.876 436.22 943.756 435.02 943.596 433.82H948.876L949.476 440.3H948.756C949.676 438.02 951.096 436.28 953.016 435.08C954.936 433.88 957.176 433.28 959.736 433.28C963.296 433.28 965.976 434.26 967.776 436.22C969.576 438.14 970.476 441.14 970.476 445.22V464H965.016V445.52C965.016 442.76 964.476 440.78 963.396 439.58C962.316 438.34 960.636 437.72 958.356 437.72C955.636 437.72 953.476 438.54 951.876 440.18C950.316 441.82 949.536 444.04 949.536 446.84V464H944.076ZM993.148 464.54C988.348 464.54 984.548 463.16 981.748 460.4C978.988 457.64 977.608 453.84 977.608 449C977.608 445.8 978.208 443.04 979.408 440.72C980.648 438.36 982.348 436.54 984.508 435.26C986.668 433.94 989.188 433.28 992.068 433.28C994.828 433.28 997.168 433.88 999.088 435.08C1001.01 436.24 1002.47 437.9 1003.47 440.06C1004.47 442.22 1004.97 444.78 1004.97 447.74V449.54H981.868V446.3H1001.25L1000.23 447.08C1000.23 443.96 999.528 441.54 998.128 439.82C996.768 438.1 994.748 437.24 992.068 437.24C989.148 437.24 986.888 438.26 985.288 440.3C983.688 442.3 982.888 445.04 982.888 448.52V449.06C982.888 452.74 983.788 455.52 985.588 457.4C987.428 459.28 989.968 460.22 993.208 460.22C995.008 460.22 996.688 459.96 998.248 459.44C999.808 458.92 1001.31 458.06 1002.75 456.86L1004.55 460.64C1003.19 461.88 1001.49 462.84 999.448 463.52C997.448 464.2 995.348 464.54 993.148 464.54ZM1012.04 464V441.2C1012.04 440 1012 438.78 1011.92 437.54C1011.88 436.26 1011.78 435.02 1011.62 433.82H1016.9L1017.56 441.38L1016.66 441.44C1017.06 439.6 1017.74 438.08 1018.7 436.88C1019.7 435.64 1020.88 434.74 1022.24 434.18C1023.64 433.58 1025.08 433.28 1026.56 433.28C1027.2 433.28 1027.74 433.3 1028.18 433.34C1028.62 433.38 1029.06 433.48 1029.5 433.64L1029.38 438.5C1028.78 438.26 1028.22 438.12 1027.7 438.08C1027.22 438 1026.62 437.96 1025.9 437.96C1024.14 437.96 1022.62 438.36 1021.34 439.16C1020.1 439.96 1019.14 441.02 1018.46 442.34C1017.82 443.66 1017.5 445.08 1017.5 446.6V464H1012.04ZM1084.75 464.54C1082.91 463.74 1081.19 462.76 1079.59 461.6C1077.99 460.4 1076.59 459.22 1075.39 458.06H1076.71C1074.95 460.1 1072.85 461.7 1070.41 462.86C1067.97 463.98 1065.33 464.54 1062.49 464.54C1059.57 464.54 1057.05 464.1 1054.93 463.22C1052.81 462.3 1051.19 461.04 1050.07 459.44C1048.95 457.8 1048.39 455.88 1048.39 453.68C1048.39 450.96 1049.19 448.64 1050.79 446.72C1052.39 444.76 1054.65 442.86 1057.57 441.02L1059.55 439.82L1058.77 440.78C1056.93 438.86 1055.57 437.12 1054.69 435.56C1053.85 433.96 1053.43 432.3 1053.43 430.58C1053.43 428.7 1053.87 427.06 1054.75 425.66C1055.67 424.26 1056.95 423.16 1058.59 422.36C1060.23 421.56 1062.15 421.16 1064.35 421.16C1067.19 421.16 1069.51 421.94 1071.31 423.5C1073.15 425.06 1074.07 427.18 1074.07 429.86C1074.07 431.34 1073.77 432.72 1073.17 434C1072.61 435.24 1071.65 436.48 1070.29 437.72C1068.97 438.92 1067.17 440.2 1064.89 441.56L1065.01 440.36L1076.41 452.6H1075.21C1076.25 450.92 1077.05 448.92 1077.61 446.6C1078.21 444.24 1078.55 441.74 1078.63 439.1H1083.37C1083.25 442.42 1082.77 445.52 1081.93 448.4C1081.09 451.28 1079.93 453.8 1078.45 455.96L1078.39 454.46C1079.43 455.58 1080.67 456.7 1082.11 457.82C1083.59 458.9 1085.17 459.82 1086.85 460.58L1084.75 464.54ZM1062.73 460.16C1065.01 460.16 1067.05 459.7 1068.85 458.78C1070.69 457.86 1072.27 456.52 1073.59 454.76L1073.47 456.26L1060.51 442.64H1062.67L1060.87 443.78C1059.27 444.82 1057.95 445.82 1056.91 446.78C1055.87 447.74 1055.09 448.74 1054.57 449.78C1054.09 450.82 1053.85 452.02 1053.85 453.38C1053.85 455.5 1054.59 457.16 1056.07 458.36C1057.59 459.56 1059.81 460.16 1062.73 460.16ZM1064.35 425.12C1062.59 425.12 1061.17 425.62 1060.09 426.62C1059.05 427.62 1058.53 428.94 1058.53 430.58C1058.53 431.42 1058.67 432.22 1058.95 432.98C1059.27 433.7 1059.77 434.5 1060.45 435.38C1061.17 436.22 1062.11 437.3 1063.27 438.62L1061.83 438.8C1064.55 437.16 1066.51 435.7 1067.71 434.42C1068.95 433.14 1069.57 431.72 1069.57 430.16C1069.57 428.6 1069.09 427.38 1068.13 426.5C1067.21 425.58 1065.95 425.12 1064.35 425.12ZM419.558 528V485.7H446.318V490.26H425.138V504.42H444.938V508.98H425.138V528H419.558ZM462.921 528.54C459.281 528.54 456.541 527.56 454.701 525.6C452.901 523.64 452.001 520.62 452.001 516.54V497.82H457.461V516.42C457.461 519.06 458.001 521 459.081 522.24C460.161 523.48 461.841 524.1 464.121 524.1C466.601 524.1 468.601 523.28 470.121 521.64C471.681 519.96 472.461 517.74 472.461 514.98V497.82H477.921V528H472.641V521.34H473.421C472.581 523.62 471.241 525.4 469.401 526.68C467.561 527.92 465.401 528.54 462.921 528.54ZM487.103 528V483.84H492.563V528H487.103ZM501.693 528V483.84H507.153V528H501.693ZM526.483 528.54C524.043 528.54 521.763 528.22 519.643 527.58C517.563 526.94 515.843 526.02 514.483 524.82L516.223 521.04C517.703 522.16 519.323 523.02 521.083 523.62C522.883 524.18 524.723 524.46 526.603 524.46C528.883 524.46 530.603 524.04 531.763 523.2C532.963 522.36 533.563 521.24 533.563 519.84C533.563 518.72 533.183 517.82 532.423 517.14C531.663 516.46 530.463 515.96 528.823 515.64L523.123 514.5C520.563 513.9 518.623 512.94 517.303 511.62C516.023 510.26 515.383 508.52 515.383 506.4C515.383 504.64 515.863 503.08 516.823 501.72C517.783 500.32 519.143 499.24 520.903 498.48C522.703 497.68 524.803 497.28 527.203 497.28C529.403 497.28 531.443 497.6 533.323 498.24C535.243 498.88 536.823 499.82 538.063 501.06L536.263 504.72C535.023 503.64 533.623 502.82 532.063 502.26C530.543 501.66 528.983 501.36 527.383 501.36C525.063 501.36 523.343 501.82 522.223 502.74C521.103 503.62 520.543 504.78 520.543 506.22C520.543 507.3 520.883 508.2 521.563 508.92C522.243 509.6 523.343 510.12 524.863 510.48L530.563 511.62C533.243 512.18 535.263 513.1 536.623 514.38C537.983 515.66 538.663 517.36 538.663 519.48C538.663 521.36 538.143 522.98 537.103 524.34C536.103 525.7 534.683 526.74 532.843 527.46C531.043 528.18 528.923 528.54 526.483 528.54ZM557.094 528.54C553.934 528.54 551.534 527.68 549.894 525.96C548.294 524.2 547.494 521.56 547.494 518.04V502.02H541.614V497.82H547.494V489.72L552.954 488.22V497.82H561.474V502.02H552.954V517.56C552.954 519.88 553.354 521.54 554.154 522.54C554.994 523.5 556.194 523.98 557.754 523.98C558.554 523.98 559.234 523.92 559.794 523.8C560.394 523.64 560.934 523.46 561.414 523.26V527.76C560.814 528 560.114 528.18 559.314 528.3C558.554 528.46 557.814 528.54 557.094 528.54ZM578.721 528.54C576.081 528.54 573.761 527.92 571.761 526.68C569.761 525.44 568.201 523.64 567.081 521.28C565.961 518.92 565.401 516.12 565.401 512.88C565.401 509.64 565.961 506.86 567.081 504.54C568.201 502.18 569.761 500.38 571.761 499.14C573.761 497.9 576.081 497.28 578.721 497.28C581.401 497.28 583.721 497.96 585.681 499.32C587.681 500.64 589.001 502.46 589.641 504.78H588.921L589.581 497.82H594.861C594.741 499.02 594.621 500.22 594.501 501.42C594.421 502.62 594.381 503.8 594.381 504.96V528H588.921V521.1H589.581C588.941 523.38 587.621 525.2 585.621 526.56C583.661 527.88 581.361 528.54 578.721 528.54ZM579.981 524.22C582.701 524.22 584.881 523.26 586.521 521.34C588.161 519.42 588.981 516.6 588.981 512.88C588.981 509.16 588.161 506.36 586.521 504.48C584.881 502.6 582.701 501.66 579.981 501.66C577.261 501.66 575.061 502.6 573.381 504.48C571.741 506.36 570.921 509.16 570.921 512.88C570.921 516.6 571.741 519.42 573.381 521.34C575.021 523.26 577.221 524.22 579.981 524.22ZM616.489 528.54C613.489 528.54 610.889 527.92 608.689 526.68C606.489 525.4 604.769 523.58 603.529 521.22C602.329 518.82 601.729 515.98 601.729 512.7C601.729 509.46 602.349 506.7 603.589 504.42C604.829 502.1 606.549 500.34 608.749 499.14C610.949 497.9 613.529 497.28 616.489 497.28C618.449 497.28 620.349 497.62 622.189 498.3C624.029 498.94 625.529 499.88 626.689 501.12L624.829 504.96C623.669 503.84 622.389 503.02 620.989 502.5C619.589 501.94 618.209 501.66 616.849 501.66C613.889 501.66 611.569 502.62 609.889 504.54C608.209 506.42 607.369 509.16 607.369 512.76C607.369 516.4 608.209 519.2 609.889 521.16C611.569 523.12 613.889 524.1 616.849 524.1C618.169 524.1 619.529 523.84 620.929 523.32C622.329 522.8 623.629 521.98 624.829 520.86L626.689 524.64C625.489 525.92 623.949 526.9 622.069 527.58C620.229 528.22 618.369 528.54 616.489 528.54ZM633.353 528V483.84H638.813V511.14H638.933L652.553 497.82H659.333L643.133 513.66L643.193 511.08L660.773 528H653.813L638.933 513.96H638.813V528H633.353ZM688.74 528L677.46 497.82H683.16L692.28 523.68H690.72L700.08 497.82H704.52L713.82 523.68H712.32L721.5 497.82H726.96L715.62 528H710.46L700.86 501.72H703.5L693.96 528H688.74ZM746.175 528.54C741.375 528.54 737.575 527.16 734.775 524.4C732.015 521.64 730.635 517.84 730.635 513C730.635 509.8 731.235 507.04 732.435 504.72C733.675 502.36 735.375 500.54 737.535 499.26C739.695 497.94 742.215 497.28 745.095 497.28C747.855 497.28 750.195 497.88 752.115 499.08C754.035 500.24 755.495 501.9 756.495 504.06C757.495 506.22 757.995 508.78 757.995 511.74V513.54H734.895V510.3H754.275L753.255 511.08C753.255 507.96 752.555 505.54 751.155 503.82C749.795 502.1 747.775 501.24 745.095 501.24C742.175 501.24 739.915 502.26 738.315 504.3C736.715 506.3 735.915 509.04 735.915 512.52V513.06C735.915 516.74 736.815 519.52 738.615 521.4C740.455 523.28 742.995 524.22 746.235 524.22C748.035 524.22 749.715 523.96 751.275 523.44C752.835 522.92 754.335 522.06 755.775 520.86L757.575 524.64C756.215 525.88 754.515 526.84 752.475 527.52C750.475 528.2 748.375 528.54 746.175 528.54ZM780.79 528.54C778.11 528.54 775.79 527.88 773.83 526.56C771.87 525.2 770.57 523.34 769.93 520.98H770.59V528H765.13V483.84H770.59V504.72H769.93C770.61 502.4 771.91 500.58 773.83 499.26C775.79 497.94 778.11 497.28 780.79 497.28C783.47 497.28 785.81 497.92 787.81 499.2C789.81 500.44 791.35 502.22 792.43 504.54C793.55 506.86 794.11 509.66 794.11 512.94C794.11 516.18 793.55 518.98 792.43 521.34C791.35 523.66 789.79 525.44 787.75 526.68C785.75 527.92 783.43 528.54 780.79 528.54ZM779.53 524.22C782.25 524.22 784.43 523.28 786.07 521.4C787.75 519.48 788.59 516.66 788.59 512.94C788.59 509.22 787.75 506.42 786.07 504.54C784.43 502.62 782.25 501.66 779.53 501.66C776.77 501.66 774.57 502.6 772.93 504.48C771.33 506.36 770.53 509.16 770.53 512.88C770.53 516.6 771.33 519.42 772.93 521.34C774.57 523.26 776.77 524.22 779.53 524.22ZM828.799 528.54C826.159 528.54 823.839 527.92 821.839 526.68C819.839 525.44 818.279 523.64 817.159 521.28C816.039 518.92 815.479 516.12 815.479 512.88C815.479 509.64 816.039 506.86 817.159 504.54C818.279 502.18 819.839 500.38 821.839 499.14C823.839 497.9 826.159 497.28 828.799 497.28C831.439 497.28 833.739 497.94 835.699 499.26C837.699 500.58 839.039 502.4 839.719 504.72H838.999V483.84H844.459V528H839.059V520.98H839.719C839.079 523.34 837.759 525.2 835.759 526.56C833.799 527.88 831.479 528.54 828.799 528.54ZM830.059 524.22C832.779 524.22 834.959 523.26 836.599 521.34C838.279 519.42 839.119 516.6 839.119 512.88C839.119 509.16 838.279 506.36 836.599 504.48C834.959 502.6 832.779 501.66 830.059 501.66C827.339 501.66 825.139 502.6 823.459 504.48C821.819 506.36 820.999 509.16 820.999 512.88C820.999 516.6 821.819 519.42 823.459 521.34C825.139 523.26 827.339 524.22 830.059 524.22ZM867.347 528.54C862.547 528.54 858.747 527.16 855.947 524.4C853.187 521.64 851.807 517.84 851.807 513C851.807 509.8 852.407 507.04 853.607 504.72C854.847 502.36 856.547 500.54 858.707 499.26C860.867 497.94 863.387 497.28 866.267 497.28C869.027 497.28 871.367 497.88 873.287 499.08C875.207 500.24 876.667 501.9 877.667 504.06C878.667 506.22 879.167 508.78 879.167 511.74V513.54H856.067V510.3H875.447L874.427 511.08C874.427 507.96 873.727 505.54 872.327 503.82C870.967 502.1 868.947 501.24 866.267 501.24C863.347 501.24 861.087 502.26 859.487 504.3C857.887 506.3 857.087 509.04 857.087 512.52V513.06C857.087 516.74 857.987 519.52 859.787 521.4C861.627 523.28 864.167 524.22 867.407 524.22C869.207 524.22 870.887 523.96 872.447 523.44C874.007 522.92 875.507 522.06 876.947 520.86L878.747 524.64C877.387 525.88 875.687 526.84 873.647 527.52C871.647 528.2 869.547 528.54 867.347 528.54ZM894.772 528L881.872 497.82H887.752L898.252 523.74H896.572L907.252 497.82H912.832L899.872 528H894.772ZM931.214 528.54C926.414 528.54 922.614 527.16 919.814 524.4C917.054 521.64 915.674 517.84 915.674 513C915.674 509.8 916.274 507.04 917.474 504.72C918.714 502.36 920.414 500.54 922.574 499.26C924.734 497.94 927.254 497.28 930.134 497.28C932.894 497.28 935.234 497.88 937.154 499.08C939.074 500.24 940.534 501.9 941.534 504.06C942.534 506.22 943.034 508.78 943.034 511.74V513.54H919.934V510.3H939.314L938.294 511.08C938.294 507.96 937.594 505.54 936.194 503.82C934.834 502.1 932.814 501.24 930.134 501.24C927.214 501.24 924.954 502.26 923.354 504.3C921.754 506.3 920.954 509.04 920.954 512.52V513.06C920.954 516.74 921.854 519.52 923.654 521.4C925.494 523.28 928.034 524.22 931.274 524.22C933.074 524.22 934.754 523.96 936.314 523.44C937.874 522.92 939.374 522.06 940.814 520.86L942.614 524.64C941.254 525.88 939.554 526.84 937.514 527.52C935.514 528.2 933.414 528.54 931.214 528.54ZM950.169 528V483.84H955.629V528H950.169ZM977.479 528.54C974.519 528.54 971.959 527.92 969.799 526.68C967.639 525.4 965.959 523.6 964.759 521.28C963.559 518.92 962.959 516.12 962.959 512.88C962.959 509.68 963.559 506.92 964.759 504.6C965.959 502.24 967.639 500.44 969.799 499.2C971.959 497.92 974.519 497.28 977.479 497.28C980.439 497.28 982.999 497.92 985.159 499.2C987.359 500.44 989.039 502.24 990.199 504.6C991.399 506.92 991.999 509.68 991.999 512.88C991.999 516.12 991.399 518.92 990.199 521.28C989.039 523.6 987.359 525.4 985.159 526.68C982.999 527.92 980.439 528.54 977.479 528.54ZM977.479 524.22C980.199 524.22 982.379 523.26 984.019 521.34C985.659 519.42 986.479 516.6 986.479 512.88C986.479 509.16 985.659 506.36 984.019 504.48C982.379 502.6 980.199 501.66 977.479 501.66C974.719 501.66 972.519 502.6 970.879 504.48C969.279 506.36 968.479 509.16 968.479 512.88C968.479 516.6 969.279 519.42 970.879 521.34C972.519 523.26 974.719 524.22 977.479 524.22ZM999.33 540.96V504.96C999.33 503.8 999.29 502.62 999.21 501.42C999.13 500.22 999.01 499.02 998.85 497.82H1004.13L1004.79 504.78H1004.13C1004.73 502.46 1006.01 500.64 1007.97 499.32C1009.93 497.96 1012.27 497.28 1014.99 497.28C1017.67 497.28 1020.01 497.9 1022.01 499.14C1024.01 500.38 1025.55 502.18 1026.63 504.54C1027.75 506.86 1028.31 509.64 1028.31 512.88C1028.31 516.12 1027.75 518.92 1026.63 521.28C1025.55 523.64 1024.01 525.44 1022.01 526.68C1020.01 527.92 1017.67 528.54 1014.99 528.54C1012.31 528.54 1009.99 527.88 1008.03 526.56C1006.11 525.2 1004.81 523.38 1004.13 521.1H1004.79V540.96H999.33ZM1013.73 524.22C1016.49 524.22 1018.69 523.26 1020.33 521.34C1021.97 519.42 1022.79 516.6 1022.79 512.88C1022.79 509.16 1021.97 506.36 1020.33 504.48C1018.69 502.6 1016.49 501.66 1013.73 501.66C1010.97 501.66 1008.77 502.6 1007.13 504.48C1005.53 506.36 1004.73 509.16 1004.73 512.88C1004.73 516.6 1005.53 519.42 1007.13 521.34C1008.77 523.26 1010.97 524.22 1013.73 524.22ZM1049.4 528.54C1044.6 528.54 1040.8 527.16 1038 524.4C1035.24 521.64 1033.86 517.84 1033.86 513C1033.86 509.8 1034.46 507.04 1035.66 504.72C1036.9 502.36 1038.6 500.54 1040.76 499.26C1042.92 497.94 1045.44 497.28 1048.32 497.28C1051.08 497.28 1053.42 497.88 1055.34 499.08C1057.26 500.24 1058.72 501.9 1059.72 504.06C1060.72 506.22 1061.22 508.78 1061.22 511.74V513.54H1038.12V510.3H1057.5L1056.48 511.08C1056.48 507.96 1055.78 505.54 1054.38 503.82C1053.02 502.1 1051 501.24 1048.32 501.24C1045.4 501.24 1043.14 502.26 1041.54 504.3C1039.94 506.3 1039.14 509.04 1039.14 512.52V513.06C1039.14 516.74 1040.04 519.52 1041.84 521.4C1043.68 523.28 1046.22 524.22 1049.46 524.22C1051.26 524.22 1052.94 523.96 1054.5 523.44C1056.06 522.92 1057.56 522.06 1059 520.86L1060.8 524.64C1059.44 525.88 1057.74 526.84 1055.7 527.52C1053.7 528.2 1051.6 528.54 1049.4 528.54ZM1068.29 528V505.2C1068.29 504 1068.25 502.78 1068.17 501.54C1068.13 500.26 1068.03 499.02 1067.87 497.82H1073.15L1073.81 505.38L1072.91 505.44C1073.31 503.6 1073.99 502.08 1074.95 500.88C1075.95 499.64 1077.13 498.74 1078.49 498.18C1079.89 497.58 1081.33 497.28 1082.81 497.28C1083.45 497.28 1083.99 497.3 1084.43 497.34C1084.87 497.38 1085.31 497.48 1085.75 497.64L1085.63 502.5C1085.03 502.26 1084.47 502.12 1083.95 502.08C1083.47 502 1082.87 501.96 1082.15 501.96C1080.39 501.96 1078.87 502.36 1077.59 503.16C1076.35 503.96 1075.39 505.02 1074.71 506.34C1074.07 507.66 1073.75 509.08 1073.75 510.6V528H1068.29Z" fill="#737373"/>
<path d="M710 363.15H755V318.15H710V363.15Z" fill="black"/>
<path d="M625 363.15H670V318.15H625V363.15Z" fill="black"/>
<path d="M881 362.15H926V317.15H881V362.15Z" fill="black"/>
<path d="M795.511 365.15H840.511V320.15H795.511V365.15Z" fill="black"/>
<path d="M965.766 365.15H1010.77V320.15H965.766V365.15Z" fill="black"/>
<path d="M1051.02 362.15H1096.02V317.15H1051.02V362.15Z" fill="black"/>
</svg>
